# xmcd CD database file
#
# Track frame offsets:
#	150
#	20625
#	37650
#	56850
#
# Disc length: 1028 seconds
#
# Revision: 0
# Processed by: cddbd v1.5PL3 Copyright (c) Steve Scherf et al.
# Submitted via: CDex 1.51
#
DISCID=2b040204
DTITLE=HIBIKI - Till The End 〜終わらない愛を〜
DYEAR=1999
DGENRE=JPop
TTITLE0=Till The End 〜終わらない愛を〜
TTITLE1=Let me groove
TTITLE2=Till The End 〜終わらない愛を〜 (Acoustic Version)
TTITLE3=Till The End 〜終わらない愛を〜 (Instrumental)
EXTD=YEAR: 1999
EXTT0=
EXTT1=
EXTT2=
EXTT3=
PLAYORDER=
